HIERARCHY
ROOT Hips
{
	OFFSET 0.000000 0.000000 0.000000
	CHANNELS 6 Xposition Yposition Zposition Zrotation Yrotation Xrotation 
	JOINT LHipJoint
	{
		OFFSET 0.000000 0.000000 0.000000
		CHANNELS 3 Zrotation Yrotation Xrotation
		JOINT LeftUpLeg
		{
			OFFSET 1.363060 -1.794630 0.839290
			CHANNELS 3 Zrotation Yrotation Xrotation
			JOINT LeftLeg
			{
				OFFSET 2.448110 -6.726130 0.000000
				CHANNELS 3 Zrotation Yrotation Xrotation
				JOINT LeftFoot
				{
					OFFSET 2.562200 -7.039590 0.000000
					CHANNELS 3 Zrotation Yrotation Xrotation
					JOINT LeftToeBase
					{
						OFFSET 0.157640 -0.433110 2.322550
						CHANNELS 3 Zrotation Yrotation Xrotation
						End Site
						{
							OFFSET 0.000000 0.000000 0.000000
						}
					}
				}
			}
		}
	}
	JOINT RHipJoint
	{
		OFFSET 0.000000 0.000000 0.000000
		CHANNELS 3 Zrotation Yrotation Xrotation
		JOINT RightUpLeg
		{
			OFFSET -1.305520 -1.794630 0.839290
			CHANNELS 3 Zrotation Yrotation Xrotation
			JOINT RightLeg
			{
				OFFSET -2.542530 -6.985550 0.000000
				CHANNELS 3 Zrotation Yrotation Xrotation
				JOINT RightFoot
				{
					OFFSET -2.568260 -7.056230 0.000000
					CHANNELS 3 Zrotation Yrotation Xrotation
					JOINT RightToeBase
					{
						OFFSET -0.164730 -0.452590 2.363150
						CHANNELS 3 Zrotation Yrotation Xrotation
						End Site
						{
							OFFSET 0.000000 0.000000 0.000000
						}
					}
				}
			}
		}
	}
	JOINT LowerBack
	{
		OFFSET 0.000000 0.000000 0.000000
		CHANNELS 3 Zrotation Yrotation Xrotation
		JOINT Spine
		{
			OFFSET 0.028270 2.035590 -0.193380
			CHANNELS 3 Zrotation Yrotation Xrotation
			JOINT Spine1
			{
				OFFSET 0.056720 2.048850 -0.042750
				CHANNELS 3 Zrotation Yrotation Xrotation
				JOINT Neck
				{
					OFFSET 0.000000 0.000000 0.000000
					CHANNELS 3 Zrotation Yrotation Xrotation
					JOINT Neck1
					{
						OFFSET -0.054170 1.746240 0.172020
						CHANNELS 3 Zrotation Yrotation Xrotation
						JOINT Head
						{
							OFFSET 0.104070 1.761360 -0.123970
							CHANNELS 3 Zrotation Yrotation Xrotation
							End Site
							{
								OFFSET 0.000000 0.000000 0.000000
							}
						}
					}
				}
				JOINT LeftShoulder
				{
					OFFSET 0.000000 0.000000 0.000000
					CHANNELS 3 Zrotation Yrotation Xrotation
					JOINT LeftArm
					{
						OFFSET 3.362410 1.200890 -0.311210
						CHANNELS 3 Zrotation Yrotation Xrotation
						JOINT LeftForeArm
						{
							OFFSET 4.983000 -0.000000 -0.000000
							CHANNELS 3 Zrotation Yrotation Xrotation
							JOINT LeftHand
							{
								OFFSET 3.483560 -0.000000 -0.000000
								CHANNELS 3 Zrotation Yrotation Xrotation
								JOINT LeftFingerBase
								{
									OFFSET 0.000000 0.000000 0.000000
									CHANNELS 3 Zrotation Yrotation Xrotation
									JOINT LeftHandIndex1
									{
										OFFSET 0.715260 -0.000000 -0.000000
										CHANNELS 3 Zrotation Yrotation Xrotation
										End Site
										{
											OFFSET 0.000000 0.000000 0.000000
										}
									}
								}
								JOINT LThumb
								{
									OFFSET 0.000000 0.000000 0.000000
									CHANNELS 3 Zrotation Yrotation Xrotation
									End Site
									{
										OFFSET 0.000000 0.000000 0.000000
									}
								}
							}
						}
					}
				}
				JOINT RightShoulder
				{
					OFFSET 0.000000 0.000000 0.000000
					CHANNELS 3 Zrotation Yrotation Xrotation
					JOINT RightArm
					{
						OFFSET -3.136600 1.374050 -0.404650
						CHANNELS 3 Zrotation Yrotation Xrotation
						JOINT RightForeArm
						{
							OFFSET -5.241900 -0.000000 -0.000000
							CHANNELS 3 Zrotation Yrotation Xrotation
							JOINT RightHand
							{
								OFFSET -3.444170 -0.000000 -0.000000
								CHANNELS 3 Zrotation Yrotation Xrotation
								JOINT RightFingerBase
								{
									OFFSET 0.000000 0.000000 0.000000
									CHANNELS 3 Zrotation Yrotation Xrotation
									JOINT RightHandIndex1
									{
										OFFSET -0.622530 -0.000000 -0.000000
										CHANNELS 3 Zrotation Yrotation Xrotation
										End Site
										{
											OFFSET 0.000000 0.000000 0.000000
										}
									}
								}
								JOINT RThumb
								{
									OFFSET 0.000000 0.000000 0.000000
									CHANNELS 3 Zrotation Yrotation Xrotation
									End Site
									{
										OFFSET 0.000000 0.000000 0.000000
									}
								}
							}
						}
					}
				}
			}
		}
	}
}
MOTION
Frames: 6
Frame Time: 0.008333
-13.404400 19.374359 21.166491 -176.915265 -17.984821 -175.468803 2.490583 -2.741198 -6.677278 -0.150832 28.244678 -51.783705 20.105417 20.634435 73.287299 5.234161 -1.108365 56.006690 0.700900 5.351300 14.913200 8.812691 2.628411 5.433114 7.493056 -22.682217 -27.760435 -3.034274 -10.371650 25.921729 5.460105 -22.618605 28.967972 -0.311300 3.587100 -9.917900 -7.256068 1.469097 17.629456 1.044352 1.099184 -4.769384 4.497306 -0.412519 -13.495414 3.185422 12.270115 -13.785590 8.004438 14.744025 3.621359 0.571200 7.555300 6.569100 7.297635 -13.691196 -1.544473 11.159526 -28.383970 -26.858510 23.574929 -29.253954 -21.969786 10.056994 -7.446599 -67.425306 -0.114646 25.726180 1.642700 -7.125000 0.000000 0.000000 -39.537200 63.624900 -19.335600 2.238512 11.277331 2.555045 17.809480 -11.666282 72.159213 -59.863558 50.560844 -48.311478 1.448371 -1.574518 24.417727 -76.200236 31.571998 -67.554100 7.125000 0.000000 0.000000 -25.722800 36.262100 -37.841500 
-13.238272 19.359747 21.154776 -176.837116 -17.897643 -175.880125 2.961047 -2.619335 -6.678512 0.029465 29.615844 -54.421896 22.184009 20.683431 80.514963 5.355102 -2.276167 55.881060 0.743800 5.509000 15.366300 8.918969 2.645537 5.664889 7.743777 -22.309004 -27.300840 -2.795261 -10.357111 25.886997 5.312280 -22.007557 28.247298 -0.224900 3.052800 -8.425800 -7.606013 1.535214 18.232485 1.055802 1.055701 -4.758290 4.927509 -0.453821 -13.616839 3.215058 12.185040 -13.902595 8.204181 14.618218 3.427290 0.648600 7.501100 6.426800 7.436497 -13.705958 -1.182658 12.279867 -27.738502 -28.319668 22.842535 -28.835492 -21.490912 10.117618 -7.747565 -66.918818 0.216758 25.638914 1.938300 -7.125000 0.000000 0.000000 -39.212600 63.832900 -19.339900 2.272226 11.161204 2.541541 17.668449 -11.908605 72.091399 -57.824010 49.824584 -46.505909 1.554885 -1.735553 23.862142 -75.477966 31.535146 -66.645700 7.125000 0.000000 0.000000 -25.271900 35.677200 -37.093300 
-13.081095 19.345398 21.144508 -176.885592 -17.637911 -176.191928 3.359183 -2.425485 -6.576560 0.041138 31.428364 -57.169171 24.120789 20.496441 87.713077 5.527513 -3.466494 55.718598 0.780300 5.639800 15.742700 8.971782 2.646399 5.801159 7.795881 -21.649450 -26.736113 -2.578280 -10.384433 25.915192 5.123744 -21.380083 27.615600 -0.151900 2.511200 -6.920600 -8.041535 1.632851 18.727640 1.048313 1.039200 -4.746549 5.291939 -0.480139 -13.704091 3.249462 12.088176 -14.028935 8.414771 14.478285 3.272660 0.741000 7.443300 6.304200 7.542047 -13.705335 -0.831294 13.247608 -27.089607 -29.564084 22.244783 -28.467798 -21.120082 10.145262 -8.104904 -66.324436 0.661705 25.590690 2.333700 -7.125000 0.000000 0.000000 -38.782700 64.112800 -19.345300 2.303285 11.052258 2.504226 17.632293 -12.028062 71.923177 -55.860866 49.118984 -44.714867 1.666548 -1.897901 23.157600 -74.600612 31.482457 -65.493300 7.125000 0.000000 0.000000 -24.724500 34.924000 -36.179900 
-12.932869 19.333551 21.134371 -177.062885 -17.254310 -176.399831 3.689543 -2.156335 -6.385625 -0.140239 33.688780 -59.977914 25.913779 20.133385 94.737969 5.771696 -4.735225 55.697852 0.832500 5.820900 16.265600 8.968475 2.626059 5.849446 7.708934 -20.833384 -26.151641 -2.388832 -10.446025 26.005230 4.870377 -20.708546 27.119023 -0.091600 1.952100 -5.373200 -8.564197 1.745605 19.105750 1.026280 1.029567 -4.733809 5.605811 -0.498849 -13.750192 3.275343 11.977745 -14.158964 8.634762 14.324126 3.150383 0.845400 7.380500 6.194000 7.613154 -13.688628 -0.497906 14.062883 -26.447539 -30.571518 21.781940 -28.158045 -20.861383 10.142997 -8.522104 -65.681763 1.237563 25.599816 2.849200 -7.125000 0.000000 0.000000 -38.247800 64.489100 -19.369400 2.333272 10.950954 2.448285 17.673866 -12.036656 71.669961 -53.978307 48.447575 -42.957355 1.784594 -2.054572 22.363763 -73.553453 31.319836 -64.014600 7.125000 0.000000 0.000000 -24.122100 33.896900 -35.159100 
-12.792674 19.324204 21.123445 -177.345484 -16.800673 -176.511060 3.951873 -1.812888 -6.115657 -0.528948 36.415326 -62.831944 27.550331 19.670993 101.506926 6.060827 -6.428583 55.850425 0.854700 5.895800 16.482500 8.925332 2.587878 5.817717 7.523248 -19.900558 -25.574717 -2.230583 -10.542454 26.147148 4.614992 -20.082765 26.705097 -0.043800 1.350000 -3.712400 -9.149787 1.857885 19.364811 0.995127 1.015214 -4.719278 5.877945 -0.516533 -13.747580 3.281165 11.852137 -14.292583 8.856177 14.155471 3.053939 0.955700 7.311200 6.092900 7.651969 -13.655394 -0.188370 14.729909 -25.829167 -31.325793 21.460904 -27.917549 -20.722143 10.107645 -9.006350 -65.044668 1.985188 25.676430 3.527200 -7.125000 0.000000 0.000000 -37.554800 64.986000 -19.395800 2.361843 10.854359 2.379400 17.763599 -11.950995 71.346532 -52.224442 47.824511 -41.292698 1.910578 -2.194357 21.407707 -72.296362 31.063380 -62.144700 7.125000 0.000000 0.000000 -23.441200 32.551300 -33.982000 
-12.659060 19.317754 21.111203 -177.700414 -16.335487 -176.535342 4.141654 -1.403080 -5.775349 -1.076440 39.598423 -65.699603 29.083561 19.178090 107.969698 6.364843 -8.586319 56.202696 0.850100 5.880500 16.438200 8.859965 2.536234 5.718758 7.290953 -18.924297 -25.042869 -2.103824 -10.668543 26.324296 4.401402 -19.563781 26.334262 -0.012300 0.717100 -1.970700 -9.772548 1.953905 19.511526 0.961302 0.983495 -4.703066 6.122986 -0.539865 -13.697320 3.261017 11.711163 -14.428848 9.075291 13.972625 2.977178 1.067000 7.234400 6.000000 7.661101 -13.605364 0.091523 15.254968 -25.251181 -31.806210 21.290128 -27.760449 -20.713762 10.053012 -9.556761 -64.474939 2.919735 25.859482 4.392000 -7.125000 0.000000 0.000000 -36.745000 65.649200 -19.476500 2.389559 10.759877 2.304740 17.871523 -11.787357 70.980159 -50.639781 47.257969 -39.766628 2.045061 -2.305314 20.263182 -70.791822 30.688893 -59.804500 7.125000 0.000000 0.000000 -22.678800 30.814100 -32.626800 
